<svg xmlns="http://www.w3.org/2000/svg" viewBox="0 0 98 96" fill="#ffffff">
  <path fill-rule="evenodd" clip-rule="evenodd" d="M48.854 0C21.839 0 0 22 0 49.217c0 21.756 13.993 40.172 33.405 46.675 2.427.49 3.316-1.059 3.316-2.362 0-1.14-.044-4.147-.07-8.138-13.59 2.975-16.46-6.555-16.46-6.555-2.21-5.675-5.404-7.186-5.404-7.186-4.415-3.015.333-2.956.333-2.956 4.89.345 7.46 5.045 7.46 5.045 4.338 7.449 11.385 5.296 14.164 4.047.436-3.155 1.695-5.296 3.084-6.516-10.844-1.236-22.234-5.465-22.234-24.316 0-5.372 1.91-9.757 5.046-13.195-.506-1.237-2.188-6.218.48-12.947 0 0 4.12-1.33 13.495 5.04a47.04 47.04 0 0 1 12.29-1.657c4.169.02 8.37.564 12.29 1.658 9.373-6.37 13.486-5.04 13.486-5.04 2.675 6.729.994 11.71.487 12.947 3.143 3.438 5.04 7.823 5.04 13.195 0 18.89-11.404 23.06-22.27 24.27 1.732 1.494 3.275 4.441 3.275 8.956 0 6.463-.056 11.675-.056 13.26 0 1.312.875 2.87 3.35 2.358 19.408-6.51 33.388-24.917 33.388-46.672C97.707 22 75.866 0 48.854 0z"></path>
</svg>
